<mxfile host="app.diagrams.net" modified="2024-06-02T10:56:59.734Z" agent="Mozilla/5.0 (Windows NT 10.0; Win64; x64) AppleWebKit/537.36 (KHTML, like Gecko) Chrome/125.0.0.0 Safari/537.36" etag="3NpyhSPygFuVUpNjSzCQ" version="24.4.13" type="github">
  <diagram name="第 1 页" id="h5a1oW3FI0Y9MHwNML26">
    <mxGraphModel dx="1106" dy="605" grid="1" gridSize="10" guides="1" tooltips="1" connect="1" arrows="1" fold="1" page="1" pageScale="1" pageWidth="827" pageHeight="1169" math="0" shadow="0">
      <root>
        <mxCell id="0" />
        <mxCell id="1" parent="0" />
        <mxCell id="6AWOPYi4QYL4KCTbsI75-3" value="" style="edgeStyle=orthogonalEdgeStyle;rounded=0;orthogonalLoop=1;jettySize=auto;html=1;" edge="1" parent="1" source="6AWOPYi4QYL4KCTbsI75-1" target="6AWOPYi4QYL4KCTbsI75-2">
          <mxGeometry relative="1" as="geometry" />
        </mxCell>
        <mxCell id="6AWOPYi4QYL4KCTbsI75-1" value="" style="rounded=1;whiteSpace=wrap;html=1;" vertex="1" parent="1">
          <mxGeometry x="400" y="40" width="120" height="60" as="geometry" />
        </mxCell>
        <mxCell id="6AWOPYi4QYL4KCTbsI75-5" value="" style="edgeStyle=orthogonalEdgeStyle;rounded=0;orthogonalLoop=1;jettySize=auto;html=1;" edge="1" parent="1" source="6AWOPYi4QYL4KCTbsI75-2" target="6AWOPYi4QYL4KCTbsI75-4">
          <mxGeometry relative="1" as="geometry" />
        </mxCell>
        <mxCell id="6AWOPYi4QYL4KCTbsI75-7" value="" style="edgeStyle=orthogonalEdgeStyle;rounded=0;orthogonalLoop=1;jettySize=auto;html=1;" edge="1" parent="1" source="6AWOPYi4QYL4KCTbsI75-2" target="6AWOPYi4QYL4KCTbsI75-6">
          <mxGeometry relative="1" as="geometry" />
        </mxCell>
        <mxCell id="6AWOPYi4QYL4KCTbsI75-2" value="" style="whiteSpace=wrap;html=1;rounded=1;" vertex="1" parent="1">
          <mxGeometry x="400" y="180" width="120" height="60" as="geometry" />
        </mxCell>
        <mxCell id="6AWOPYi4QYL4KCTbsI75-4" value="" style="whiteSpace=wrap;html=1;rounded=1;" vertex="1" parent="1">
          <mxGeometry x="600" y="180" width="120" height="60" as="geometry" />
        </mxCell>
        <mxCell id="6AWOPYi4QYL4KCTbsI75-6" value="" style="whiteSpace=wrap;html=1;rounded=1;" vertex="1" parent="1">
          <mxGeometry x="200" y="180" width="120" height="60" as="geometry" />
        </mxCell>
      </root>
    </mxGraphModel>
  </diagram>
</mxfile>
